# Blender v2.81 (sub 16) OBJ File: 'simple_cube.blend'
# www.blender.org
mtllib simple_cube.mtl
o Cube
v 1.000000 1.000000 -1.000000
v 1.000000 -1.000000 -1.000000
v 1.000000 1.000000 1.000000
v 1.000000 -1.000000 1.000000
v -1.000000 1.000000 -1.000000
v -1.000000 -1.000000 -1.000000
v -1.000000 1.000000 1.000000
v -1.000000 -1.000000 1.000000
vt 0.517719 0.000100
vt 0.585477 0.414523
vt 0.288545 0.711455
vt 0.000100 0.225935
vt 0.000100 0.999900
vt 0.000100 0.000100
vt 0.999900 0.000100
vt 0.999900 0.999900
vt 0.125000 0.500000
vt 0.375000 0.500000
vt 0.375000 0.750000
vt 0.125000 0.750000
vt 0.375000 0.000000
vt 0.625000 0.000000
vt 0.625000 0.250000
vt 0.375000 0.250000
vt 0.999900 0.482281
vt 0.774065 0.999900
vt 0.625000 0.500000
vn 0.0000 0.0000 1.0000
vn 1.0000 0.0000 0.0000
vn 0.0000 -1.0000 0.0000
vn -1.0000 0.0000 0.0000
vn 0.0000 1.0000 0.0000
vn 0.0000 0.0000 -1.0000
usemtl red
s off
f 4/1/1 3/2/1 7/3/1 8/4/1
usemtl blue
f 2/5/2 1/6/2 3/7/2 4/8/2
usemtl yellow
f 6/9/3 2/10/3 4/11/3 8/12/3
usemtl green
f 8/13/4 7/14/4 5/15/4 6/16/4
usemtl white
f 1/17/5 5/18/5 7/3/5 3/2/5
usemtl orange
f 6/16/6 5/15/6 1/19/6 2/10/6
